<?xml version="1.0" encoding="UTF-8" standalone="no"?>
<!-- Created with Inkscape (http://www.inkscape.org/) -->

<svg
   version="1.1"
   id="svg48"
   width="820"
   height="820"
   viewBox="0 0 820 820"
   sodipodi:docname="favicon.png"
   inkscape:export-filename="../dev/web/easyShopping/favicon.svg"
   inkscape:export-xdpi="96"
   inkscape:export-ydpi="96"
   xmlns:inkscape="http://www.inkscape.org/namespaces/inkscape"
   xmlns:sodipodi="http://sodipodi.sourceforge.net/DTD/sodipodi-0.dtd"
   xmlns="http://www.w3.org/2000/svg"
   xmlns:svg="http://www.w3.org/2000/svg">
  <defs
     id="defs52">
    <inkscape:path-effect
       effect="fillet_chamfer"
       id="path-effect5359"
       is_visible="true"
       lpeversion="1"
       nodesatellites_param="F,0,0,1,0,5,0,1 @ F,0,0,1,0,5,0,1 @ F,0,0,1,0,5,0,1 @ F,0,0,1,0,5,0,1"
       unit="px"
       method="auto"
       mode="F"
       radius="5"
       chamfer_steps="1"
       flexible="false"
       use_knot_distance="true"
       apply_no_radius="true"
       apply_with_radius="true"
       only_selected="false"
       hide_knots="false" />
    <inkscape:path-effect
       effect="fillet_chamfer"
       id="path-effect5359-2"
       is_visible="true"
       lpeversion="1"
       nodesatellites_param="F,0,0,1,0,5,0,1 @ F,0,0,1,0,5,0,1 @ F,0,0,1,0,5,0,1 @ F,0,0,1,0,5,0,1"
       unit="px"
       method="auto"
       mode="F"
       radius="5"
       chamfer_steps="1"
       flexible="false"
       use_knot_distance="true"
       apply_no_radius="true"
       apply_with_radius="true"
       only_selected="false"
       hide_knots="false" />
    <inkscape:path-effect
       effect="fillet_chamfer"
       id="path-effect5359-2-8"
       is_visible="true"
       lpeversion="1"
       nodesatellites_param="F,0,0,1,0,5,0,1 @ F,0,0,1,0,5,0,1 @ F,0,0,1,0,5,0,1 @ F,0,0,1,0,5,0,1"
       unit="px"
       method="auto"
       mode="F"
       radius="5"
       chamfer_steps="1"
       flexible="false"
       use_knot_distance="true"
       apply_no_radius="true"
       apply_with_radius="true"
       only_selected="false"
       hide_knots="false" />
    <inkscape:path-effect
       effect="fillet_chamfer"
       id="path-effect5359-2-3"
       is_visible="true"
       lpeversion="1"
       nodesatellites_param="F,0,0,1,0,5,0,1 @ F,0,0,1,0,5,0,1 @ F,0,0,1,0,5,0,1 @ F,0,0,1,0,5,0,1"
       unit="px"
       method="auto"
       mode="F"
       radius="5"
       chamfer_steps="1"
       flexible="false"
       use_knot_distance="true"
       apply_no_radius="true"
       apply_with_radius="true"
       only_selected="false"
       hide_knots="false" />
    <inkscape:path-effect
       effect="fillet_chamfer"
       id="path-effect5359-5"
       is_visible="true"
       lpeversion="1"
       nodesatellites_param="F,0,0,1,0,5,0,1 @ F,0,0,1,0,5,0,1 @ F,0,0,1,0,5,0,1 @ F,0,0,1,0,5,0,1"
       unit="px"
       method="auto"
       mode="F"
       radius="5"
       chamfer_steps="1"
       flexible="false"
       use_knot_distance="true"
       apply_no_radius="true"
       apply_with_radius="true"
       only_selected="false"
       hide_knots="false" />
    <inkscape:path-effect
       effect="fillet_chamfer"
       id="path-effect5359-2-8-0"
       is_visible="true"
       lpeversion="1"
       nodesatellites_param="F,0,0,1,0,5,0,1 @ F,0,0,1,0,5,0,1 @ F,0,0,1,0,5,0,1 @ F,0,0,1,0,5,0,1"
       unit="px"
       method="auto"
       mode="F"
       radius="5"
       chamfer_steps="1"
       flexible="false"
       use_knot_distance="true"
       apply_no_radius="true"
       apply_with_radius="true"
       only_selected="false"
       hide_knots="false" />
  </defs>
  <sodipodi:namedview
     id="namedview50"
     pagecolor="#505050"
     bordercolor="#ffffff"
     borderopacity="1"
     inkscape:showpageshadow="0"
     inkscape:pageopacity="0"
     inkscape:pagecheckerboard="1"
     inkscape:deskcolor="#505050"
     showgrid="false" />
  <g
     inkscape:groupmode="layer"
     inkscape:label="Image"
     id="g54">
    <g
       id="g5702"
       transform="translate(-0.10467529,-6.1733093)">
      <g
         id="g6020"
         transform="translate(1.25)">
        <g
           id="g6307">
          <circle
             style="fill:#00414b;fill-opacity:1;stroke:#198e75;stroke-width:5;stroke-dasharray:none;stroke-opacity:1"
             id="path268"
             cx="408.85468"
             cy="416.17331"
             r="337.75784" />
          <path
             style="fill:#198e75;fill-opacity:1;stroke-width:1.03282"
             id="rect2453"
             width="215.6225"
             height="34.106976"
             x="361.52225"
             y="214.02631"
             inkscape:path-effect="#path-effect5359"
             d="m 366.52225,214.02631 205.62249,0 a 5,5 45 0 1 5,5 v 24.10697 a 5,5 135 0 1 -5,5 H 366.52225 a 5,5 45 0 1 -5,-5 v -24.10697 a 5,5 135 0 1 5,-5 z"
             sodipodi:type="rect" />
          <path
             style="fill:#198e75;fill-opacity:1;stroke-width:1.03282"
             id="rect2453-9"
             width="237.13605"
             height="34.106976"
             x="361.45151"
             y="267.93625"
             inkscape:path-effect="#path-effect5359-2"
             d="m 366.45151,267.93625 227.13604,0 a 5,5 45 0 1 5,5 v 24.10697 a 5,5 135 0 1 -5,5 H 366.45151 a 5,5 45 0 1 -5,-5 v -24.10697 a 5,5 135 0 1 5,-5 z"
             sodipodi:type="rect" />
          <path
             style="fill:#198e75;fill-opacity:1;stroke-width:1.03282"
             id="rect2453-9-0"
             width="143.35143"
             height="34.106976"
             x="361.40985"
             y="321.38422"
             inkscape:path-effect="#path-effect5359-2-8"
             d="m 366.40985,321.38422 133.35143,0 a 5,5 45 0 1 5,5 v 24.10697 a 5,5 135 0 1 -5,5 H 366.40985 a 5,5 45 0 1 -5,-5 v -24.10697 a 5,5 135 0 1 5,-5 z"
             sodipodi:type="rect" />
          <path
             style="fill:#198e75;fill-opacity:1;stroke-width:1.03282"
             id="rect2453-0"
             width="287.03616"
             height="34.106976"
             x="361.24319"
             y="444.20731"
             inkscape:path-effect="#path-effect5359-5"
             d="m 366.24319,444.20731 h 277.03617 a 5,5 45 0 1 5,5 v 24.10697 a 5,5 135 0 1 -5,5 H 366.24319 a 5,5 45 0 1 -5,-5 v -24.10697 a 5,5 135 0 1 5,-5 z"
             sodipodi:type="rect" />
          <path
             style="fill:#198e75;fill-opacity:1;stroke-width:1.03282"
             id="rect2453-9-4"
             width="118.80121"
             height="34.106976"
             x="361.21832"
             y="498.11725"
             inkscape:path-effect="#path-effect5359-2-3"
             d="m 366.21832,498.11725 108.80121,0 a 5,5 45 0 1 5,5 v 24.10697 a 5,5 135 0 1 -5,5 H 366.21832 a 5,5 45 0 1 -5,-5 v -24.10697 a 5,5 135 0 1 5,-5 z"
             sodipodi:type="rect" />
          <path
             style="fill:#198e75;fill-opacity:1;stroke-width:1.03282"
             id="rect2453-9-0-0"
             width="187.0715"
             height="34.106976"
             x="361.20367"
             y="551.56519"
             inkscape:path-effect="#path-effect5359-2-8-0"
             d="m 366.20367,551.56519 h 177.07151 a 5,5 45 0 1 5,5 v 24.10697 a 5,5 135 0 1 -5,5 l -177.07151,0 a 5,5 45 0 1 -5,-5 v -24.10697 a 5,5 135 0 1 5,-5 z"
             sodipodi:type="rect" />
          <circle
             style="fill:#198e75;fill-opacity:1;stroke-width:1.13589"
             id="path5509"
             cx="365.72397"
             cy="692.40778"
             r="17.557516" />
          <circle
             style="fill:#198e75;fill-opacity:1;stroke-width:1.13589"
             id="path5509-6"
             cx="408.85468"
             cy="692.40778"
             r="17.557516" />
          <circle
             style="fill:#198e75;fill-opacity:1;stroke-width:1.13589"
             id="path5509-6-8"
             cx="451.98538"
             cy="692.40778"
             r="17.557516" />
          <text
             xml:space="preserve"
             style="font-style:normal;font-variant:normal;font-weight:normal;font-stretch:normal;font-size:246.361px;font-family:monospace;-inkscape-font-specification:'monospace, Normal';font-variant-ligatures:normal;font-variant-caps:normal;font-variant-numeric:normal;font-variant-east-asian:normal;fill:#fff7d6;fill-opacity:1;stroke-width:0.923851"
             x="154.63391"
             y="352.23376"
             id="text5609"><tspan
               sodipodi:role="line"
               id="tspan5607"
               x="154.63391"
               y="352.23376"
               style="fill:#fff7d6;fill-opacity:1;stroke-width:0.923851">e</tspan></text>
          <text
             xml:space="preserve"
             style="font-style:normal;font-variant:normal;font-weight:normal;font-stretch:normal;font-size:246.361px;font-family:monospace;-inkscape-font-specification:'monospace, Normal';font-variant-ligatures:normal;font-variant-caps:normal;font-variant-numeric:normal;font-variant-east-asian:normal;fill:#fff7d6;fill-opacity:1;stroke-width:0.923851"
             x="154.51361"
             y="604.84949"
             id="text5609-5"><tspan
               sodipodi:role="line"
               id="tspan5607-5"
               x="154.51361"
               y="604.84949"
               style="fill:#fff7d6;fill-opacity:1;stroke-width:0.923851">S</tspan></text>
        </g>
      </g>
    </g>
  </g>
</svg>
